<svg xmlns="http://www.w3.org/2000/svg" viewBox="0 0 500 500"><g id="freepik--Shadow--inject-462"><ellipse id="freepik--path--inject-462" cx="250" cy="416.24" rx="193.89" ry="11.32" style="fill:#f5f5f5"></ellipse></g><g id="freepik--DNA--inject-462"><path d="M358.35,205.62a38.5,38.5,0,0,1-4.93-.31.59.59,0,0,1,.15-1.17,38.73,38.73,0,0,0,5.8.29.56.56,0,0,1,.6.57.59.59,0,0,1-.57.61Zm-8.34-.91-.13,0a38.74,38.74,0,0,1-16-7.78.59.59,0,1,1,.75-.91,37.74,37.74,0,0,0,15.54,7.54.59.59,0,0,1-.13,1.17Zm26.33-3.58a.61.61,0,0,1-.52-.31.6.6,0,0,1,.24-.8c.68-.37,1.36-.76,2-1.16a.6.6,0,0,1,.82.19.59.59,0,0,1-.2.81c-.67.42-1.37.82-2.07,1.2A.55.55,0,0,1,376.34,201.13Zm11-8.81a.62.62,0,0,1-.38-.14.59.59,0,0,1-.06-.83,37.88,37.88,0,0,0,8-15.33.59.59,0,1,1,1.14.28,38.73,38.73,0,0,1-8.21,15.81A.57.57,0,0,1,387.32,192.32Zm-61-4a.61.61,0,0,1-.5-.27c-.44-.67-.86-1.36-1.25-2a.59.59,0,1,1,1-.59c.38.67.79,1.33,1.21,2a.6.6,0,0,1-.17.82A.63.63,0,0,1,326.36,188.32Zm69.75-15H396a.6.6,0,0,1-.49-.68,38.39,38.39,0,0,0,.44-5.78,39.14,39.14,0,0,0-.21-4.06.58.58,0,0,1,.52-.65.59.59,0,0,1,.65.52,38.93,38.93,0,0,1,.22,4.19,39.47,39.47,0,0,1-.45,6A.6.6,0,0,1,396.11,173.28Zm-75.92-3.81a.59.59,0,0,1-.59-.56c0-.69-.06-1.39-.06-2.09a38.67,38.67,0,0,1,.2-3.89.59.59,0,1,1,1.17.12c-.12,1.24-.19,2.51-.19,3.77,0,.68,0,1.36.06,2a.6.6,0,0,1-.56.62Zm.65-9.39h-.12a.59.59,0,0,1-.46-.69,38.84,38.84,0,0,1,7.34-16.24.6.6,0,0,1,.83-.1.59.59,0,0,1,.1.82,37.64,37.64,0,0,0-7.11,15.74A.61.61,0,0,1,320.84,160.08Zm69.66-13.34a.6.6,0,0,1-.5-.27c-.41-.64-.86-1.29-1.31-1.91a.58.58,0,0,1,.12-.82.59.59,0,0,1,.83.12c.47.64.93,1.31,1.36,2a.61.61,0,0,1-.18.82A.62.62,0,0,1,390.5,146.74Zm-9.67-10.23a.54.54,0,0,1-.34-.12,37.74,37.74,0,0,0-15.93-6.69.59.59,0,0,1,.2-1.16,38.68,38.68,0,0,1,16.42,6.9.59.59,0,0,1-.35,1.07ZM336.58,136a.59.59,0,0,1-.48-.25.58.58,0,0,1,.15-.82c.65-.46,1.32-.89,2-1.31a.59.59,0,0,1,.62,1c-.67.4-1.32.83-1.95,1.27A.59.59,0,0,1,336.58,136Zm18.67-6.67a.6.6,0,0,1-.59-.55.59.59,0,0,1,.55-.63,39.77,39.77,0,0,1,6,0,.61.61,0,0,1,.55.64.59.59,0,0,1-.64.54,38.72,38.72,0,0,0-5.8,0Z" style="fill:#407BFF"></path><circle cx="358.35" cy="166.82" r="34.65" style="fill:#407BFF"></circle><path d="M393,166.81a34.47,34.47,0,0,1-5,17.91c-.44.73-.91,1.44-1.4,2.13a34.1,34.1,0,0,1-5.56,6.13c-.76.66-1.56,1.3-2.38,1.89s-1.39,1-2.12,1.42a3.13,3.13,0,0,1-.3.2,34.59,34.59,0,0,1-35.82,0,33.28,33.28,0,0,1-4.81-3.51A34.64,34.64,0,0,1,329,148.43c.47-.75,1-1.49,1.5-2.2a34.7,34.7,0,0,1,7-7.07c.71-.53,1.44-1,2.18-1.52A34.65,34.65,0,0,1,393,166.81Z" style="fill:#fff;isolation:isolate;opacity:0.8"></path><rect x="336.74" y="149.29" width="10.15" height="2.42" transform="translate(-5.58 287.61) rotate(-45.3)" style="fill:#407BFF"></rect><rect x="337.17" y="152.68" width="15.98" height="2.42" transform="translate(-7.01 290.98) rotate(-45.3)" style="fill:#407BFF"></rect><rect x="340.1" y="155.95" width="17.02" height="2.42" transform="translate(-8.31 294.41) rotate(-45.3)" style="fill:#407BFF"></rect><rect x="344.44" y="159.39" width="14.93" height="2.42" transform="translate(-9.77 297.77) rotate(-45.3)" style="fill:#407BFF"></rect><rect x="351.17" y="162.66" width="8.4" height="2.42" transform="translate(-11.07 301.21) rotate(-45.3)" style="fill:#407BFF"></rect><rect x="355.89" y="168.23" width="10.15" height="2.42" transform="translate(-13.37 306.84) rotate(-45.3)" style="fill:#407BFF"></rect><rect x="356.31" y="171.62" width="15.98" height="2.42" transform="translate(-14.79 310.22) rotate(-45.3)" style="fill:#407BFF"></rect><rect x="359.25" y="174.9" width="17.02" height="2.42" transform="translate(-16.1 313.64) rotate(-45.3)" style="fill:#407BFF"></rect><rect x="363.59" y="178.33" width="14.93" height="2.42" transform="translate(-17.56 317) rotate(-45.3)" style="fill:#407BFF"></rect><rect x="370.31" y="181.6" width="8.4" height="2.42" transform="translate(-18.86 320.42) rotate(-45.3)" style="fill:#407BFF"></rect><g style="isolation:isolate;opacity:0.30000000000000004"><rect x="336.74" y="149.29" width="10.15" height="2.42" transform="translate(-5.58 287.61) rotate(-45.3)" style="fill:#fff"></rect><rect x="337.17" y="152.68" width="15.98" height="2.42" transform="translate(-7.01 290.98) rotate(-45.3)" style="fill:#fff"></rect><rect x="340.1" y="155.95" width="17.02" height="2.42" transform="translate(-8.31 294.41) rotate(-45.3)" style="fill:#fff"></rect><rect x="344.44" y="159.39" width="14.93" height="2.42" transform="translate(-9.77 297.77) rotate(-45.3)" style="fill:#fff"></rect><rect x="351.17" y="162.66" width="8.4" height="2.42" transform="translate(-11.07 301.21) rotate(-45.3)" style="fill:#fff"></rect><rect x="355.89" y="168.23" width="10.15" height="2.42" transform="translate(-13.37 306.84) rotate(-45.3)" style="fill:#fff"></rect><rect x="356.31" y="171.62" width="15.98" height="2.42" transform="translate(-14.79 310.22) rotate(-45.3)" style="fill:#fff"></rect><rect x="359.25" y="174.9" width="17.02" height="2.42" transform="translate(-16.1 313.64) rotate(-45.3)" style="fill:#fff"></rect><rect x="363.59" y="178.33" width="14.93" height="2.42" transform="translate(-17.56 317) rotate(-45.3)" style="fill:#fff"></rect><rect x="370.31" y="181.6" width="8.4" height="2.42" transform="translate(-18.86 320.42) rotate(-45.3)" style="fill:#fff"></rect></g><path d="M378.45,186.72a24.83,24.83,0,0,0,.23,8.15c-.68.5-1.39,1-2.12,1.42A24.36,24.36,0,0,1,376,187c.05-.58.1-1.15.16-1.73,0-.24.05-.48.06-.72.07-.63.12-1.26.17-1.89h0c.05-.66.08-1.31.1-2s0-1,0-1.53a14.6,14.6,0,0,0-.48-2.86,12.89,12.89,0,0,0-.95-2.47,11.51,11.51,0,0,0-1.3-2,11,11,0,0,0-1.69-1.73,11.33,11.33,0,0,0-2-1.33h0a12,12,0,0,0-2.42-1,9.81,9.81,0,0,0-1.1-.27,12.28,12.28,0,0,0-1.69-.24h0a21.44,21.44,0,0,0-3.4,0c-.8.06-1.61.15-2.43.25l-1,.12-1.45.18c-3.54.4-7.18.6-10.9-1.09-6.06-2.75-9.22-8.86-8.66-16.77q0-.71.12-1.41l.15-1.59.09-.87a29.56,29.56,0,0,0,.11-6.89c.71-.53,1.44-1,2.18-1.52a26.75,26.75,0,0,1,.17,8.14c0,.46-.09.92-.14,1.39s-.07.71-.11,1.06c-.06.62-.12,1.24-.16,1.86,0,.4-.05.78-.05,1.16h0a17.78,17.78,0,0,0,.21,3.23,14.46,14.46,0,0,0,.63,2.69,13,13,0,0,0,1.05,2.37,10.66,10.66,0,0,0,1.38,1.94,9.9,9.9,0,0,0,1.77,1.65,10.59,10.59,0,0,0,2.05,1.25l.21.11a12.42,12.42,0,0,0,2.32.78,15.35,15.35,0,0,0,2.94.36,28.47,28.47,0,0,0,3.56-.17h0l1.36-.16.87-.11,1.58-.19a24.61,24.61,0,0,1,7.75.09c7.29,1.47,12.07,7.75,11.87,15.62,0,1.17-.12,2.37-.23,3.54,0,.4-.06.82-.1,1.22S378.49,186.31,378.45,186.72Z" style="fill:#407BFF"></path><path d="M388,184.72c-.44.73-.91,1.44-1.4,2.13a24.76,24.76,0,0,0-8.17-.13l-1.24.13L376,187c-1.17.12-2.36.22-3.54.26-7.86.28-14.2-4.43-15.75-11.71a24.9,24.9,0,0,1-.16-7.74c.06-.53.12-1.05.17-1.58,0-.3.07-.59.11-.89s.08-.9.13-1.35a26.58,26.58,0,0,0,.13-3.55h0a14.53,14.53,0,0,0-.39-2.93,12,12,0,0,0-.81-2.31,1.36,1.36,0,0,0-.1-.21,11.54,11.54,0,0,0-1.27-2,10.26,10.26,0,0,0-1.67-1.75,11.53,11.53,0,0,0-1.95-1.36,13.33,13.33,0,0,0-2.38-1,14.65,14.65,0,0,0-2.71-.6,17.84,17.84,0,0,0-3.23-.18l-1.16.06c-.62,0-1.24.12-1.86.18l-1.07.12-1.38.16a26.44,26.44,0,0,1-8.14-.08c.47-.75,1-1.49,1.5-2.2a29.61,29.61,0,0,0,6.88-.18l.88-.1,1.58-.17,1.41-.13c7.9-.65,14,2.44,16.86,8.48,1.73,3.7,1.58,7.34,1.2,10.88-.05.48-.1,1-.16,1.46s-.07.67-.11,1c-.09.82-.17,1.64-.22,2.43a22.82,22.82,0,0,0,0,3.41,16.22,16.22,0,0,0,.26,1.7c.08.37.17.73.28,1.09h0a12.62,12.62,0,0,0,1,2.41,11.83,11.83,0,0,0,1.35,2,11.51,11.51,0,0,0,1.75,1.67,11.78,11.78,0,0,0,2,1.26,12.44,12.44,0,0,0,2.48.93,14.6,14.6,0,0,0,2.86.45c.49,0,1,0,1.53,0l2-.12c.63,0,1.26-.12,1.88-.18l.73-.08,1.72-.18A24.26,24.26,0,0,1,388,184.72Z" style="fill:#407BFF"></path></g><g id="freepik--cell-culture-plate--inject-462"><path d="M213.4,201.4a.59.59,0,0,1,0-1.18,55.44,55.44,0,0,0,17.13-3.3.59.59,0,1,1,.4,1.1,56.25,56.25,0,0,1-17.49,3.38Zm-11.75-.84h-.1c-.79-.13-1.57-.29-2.34-.46a.6.6,0,0,1-.45-.71.58.58,0,0,1,.71-.44c.75.16,1.52.32,2.29.45a.59.59,0,0,1-.11,1.17ZM234,196.75a.59.59,0,0,1-.54-.36.59.59,0,0,1,.3-.78A51.78,51.78,0,0,0,239,193a.59.59,0,1,1,.59,1,57.7,57.7,0,0,1-5.33,2.68A.59.59,0,0,1,234,196.75Zm-51-3.14a.55.55,0,0,1-.3-.09,56.27,56.27,0,0,1-5-3.31.59.59,0,1,1,.71-.94,54.55,54.55,0,0,0,4.85,3.24.6.6,0,0,1,.21.81A.61.61,0,0,1,183,193.61Zm-7.68-5.49a.56.56,0,0,1-.38-.14,56.58,56.58,0,0,1-11.6-13.51.59.59,0,1,1,1-.62,55.55,55.55,0,0,0,11.37,13.23.61.61,0,0,1,.06.84A.59.59,0,0,1,175.27,188.12ZM253,183.06a.58.58,0,0,1-.39-.15.59.59,0,0,1,0-.83c.52-.58,1-1.17,1.53-1.76a.59.59,0,0,1,.91.75c-.51.61-1,1.21-1.57,1.8A.56.56,0,0,1,253,183.06Zm8.11-11.56a.54.54,0,0,1-.27-.07.59.59,0,0,1-.25-.8,54.6,54.6,0,0,0,5.59-16.52.59.59,0,0,1,1.17.2,56.27,56.27,0,0,1-5.71,16.87A.6.6,0,0,1,261.11,171.5ZM158.7,164.12a.58.58,0,0,1-.55-.39c-.27-.75-.52-1.5-.75-2.26a.59.59,0,0,1,.39-.74.6.6,0,0,1,.74.39c.23.75.47,1.49.73,2.22a.59.59,0,0,1-.36.75A.69.69,0,0,1,158.7,164.12Zm108.55-12.83h-.07a.58.58,0,0,1-.52-.65,56.48,56.48,0,0,0,.3-5.83.59.59,0,0,1,1.18,0,56.37,56.37,0,0,1-.31,6A.58.58,0,0,1,267.25,151.29Zm-111.74-6.86h0a.59.59,0,0,1-.58-.6,56.45,56.45,0,0,1,.41-6,.59.59,0,0,1,1.17.15,56.5,56.5,0,0,0-.4,5.82A.6.6,0,0,1,155.51,144.43Zm.94-9.38h-.1a.6.6,0,0,1-.48-.69,56.1,56.1,0,0,1,6-16.77.59.59,0,1,1,1,.57A55.14,55.14,0,0,0,157,134.57.59.59,0,0,1,156.45,135.05Zm108.91-5.19a.59.59,0,0,1-.56-.43c-.22-.75-.45-1.49-.7-2.23a.6.6,0,0,1,.38-.75.59.59,0,0,1,.74.38c.25.75.49,1.51.71,2.27a.59.59,0,0,1-.4.73A.51.51,0,0,1,265.36,129.86Zm-5.6-13a.6.6,0,0,1-.51-.29,55.38,55.38,0,0,0-11.13-13.42.6.6,0,0,1-.05-.84.59.59,0,0,1,.83,0A56.92,56.92,0,0,1,260.27,116a.59.59,0,0,1-.21.81A.52.52,0,0,1,259.76,116.89Zm-90.64-8.11a.62.62,0,0,1-.38-.14.6.6,0,0,1-.06-.84c.52-.6,1-1.19,1.6-1.77a.59.59,0,0,1,.86.81c-.54.57-1.06,1.15-1.57,1.74A.59.59,0,0,1,169.12,108.78Zm76.66-7.71a.55.55,0,0,1-.36-.13c-1.54-1.18-3.15-2.3-4.8-3.32a.59.59,0,0,1-.19-.81.58.58,0,0,1,.81-.19,56.91,56.91,0,0,1,4.9,3.39.59.59,0,0,1-.36,1.06Zm-61.13-4.83a.58.58,0,0,1-.52-.31.59.59,0,0,1,.23-.8,57.5,57.5,0,0,1,5.37-2.58.59.59,0,0,1,.46,1.08,56.47,56.47,0,0,0-5.26,2.53A.6.6,0,0,1,184.65,96.24Zm8.61-3.82a.58.58,0,0,1-.19-1.14,56.05,56.05,0,0,1,17.54-3.07.57.57,0,0,1,.6.58.59.59,0,0,1-.58.6,55.3,55.3,0,0,0-17.18,3A.63.63,0,0,1,193.26,92.42Zm31.4-1.49-.14,0c-.75-.18-1.51-.35-2.28-.5a.59.59,0,1,1,.23-1.15c.78.15,1.56.32,2.33.5a.59.59,0,0,1,.43.71A.58.58,0,0,1,224.66,90.93Z" style="fill:#407BFF"></path><circle cx="211.52" cy="144.81" r="50.8" style="fill:#407BFF"></circle><path d="M262.32,144.82a50.66,50.66,0,0,1-17.49,38.36,53.5,53.5,0,0,1-7.05,5.15,50.93,50.93,0,0,1-43.28,4.36,50.75,50.75,0,0,1-16.28-9.52,50.8,50.8,0,1,1,84.1-38.35Z" style="fill:#fff;isolation:isolate;opacity:0.8"></path><path d="M211.53,144.12c0,.12,0,.23,0,.35v-.14C211.52,144.26,211.52,144.19,211.53,144.12Z" style="fill:#407BFF"></path><path d="M257.12,154.34c0-.14,0-.28,0-.42,0-8.53-20.43-15.43-45.63-15.43s-45.62,6.9-45.62,15.43v4c0,8.52,20.43,15.43,45.62,15.43s45.63-6.91,45.63-15.43c0-.14,0-.28,0-.42Z" style="fill:#407BFF"></path><path d="M257.12,154.34c0-.14,0-.28,0-.42,0-8.53-20.43-15.43-45.63-15.43s-45.62,6.9-45.62,15.43v4c0,8.52,20.43,15.43,45.62,15.43s45.63-6.91,45.63-15.43c0-.14,0-.28,0-.42Z" style="fill:#fff;isolation:isolate;opacity:0.6000000000000001"></path><ellipse cx="211.52" cy="157.92" rx="45.63" ry="15.43" style="fill:#407BFF"></ellipse><ellipse cx="211.52" cy="157.92" rx="45.63" ry="15.43" style="fill:#fff;isolation:isolate;opacity:0.7000000000000001"></ellipse><path d="M257.15,157.92c0,8.52-20.42,15.43-45.62,15.43s-45.63-6.91-45.63-15.43v-4c0,8.52,20.43,15.43,45.63,15.43,24.64,0,44.72-6.61,45.59-14.87v3C257.13,157.64,257.15,157.78,257.15,157.92Z" style="fill:#fff"></path><path d="M210.66,147.59a9.48,9.48,0,0,1,2.72-.23,44.13,44.13,0,0,1,8.79,1.88c3,.81,6.11,1.88,9.27,2,2.8.13,6,0,8.57,1.37a3.5,3.5,0,0,1,1.25,1.07,2.73,2.73,0,0,1-.14,2.94,4.68,4.68,0,0,1-2.11,1.6c-3.74,1.61-8.38,1.23-12.36,2-2.87.59-5.2,2.08-7.84,3.28-4.4,2-9.93,3.61-14,0a66.79,66.79,0,0,0-5.54-4.07c-1.16-.81-2.69-1.76-3.25-3.13-1.29-3.2,3.74-4.16,5.69-4.78a15.5,15.5,0,0,0,4.59-2A11.82,11.82,0,0,1,210.66,147.59Z" style="fill:#407BFF"></path><path d="M191.1,148.56c1.55.17,3.66.95,2.15,2.49a7.59,7.59,0,0,1-4,1.7,17.68,17.68,0,0,0-5.47,1.71c-1.2.66-2.9,1.58-4.32,1.21A2.58,2.58,0,0,1,178,152c.76-1.58,2.82-2.57,4.45-2.93,2.52-.56,5.12-.32,7.67-.58A4.71,4.71,0,0,1,191.1,148.56Z" style="fill:#407BFF"></path><path d="M247.91,109.36l-15,19.9a7.67,7.67,0,0,1-4.23,2.81,7.62,7.62,0,0,0-4.23,2.81l-7.21,9.6a1.26,1.26,0,0,1-1.77.25l-1.4-1a1.26,1.26,0,0,1-.25-1.77l7.21-9.6a7.53,7.53,0,0,0,1.53-4.54c0-.1,0-.2,0-.3a7.64,7.64,0,0,1,1.53-4.85l15.25-20.3A51.1,51.1,0,0,1,247.91,109.36Z" style="fill:#fff"></path><path d="M228.16,129.45a2.17,2.17,0,1,1-2.17-2.17A2.17,2.17,0,0,1,228.16,129.45Z" style="fill:#407BFF"></path><path d="M228.16,129.45a2.17,2.17,0,1,1-2.17-2.17A2.17,2.17,0,0,1,228.16,129.45Z" style="fill:#fff;isolation:isolate;opacity:0.6000000000000001"></path><path d="M227.13,129.45a1.14,1.14,0,1,1-1.14-1.14A1.14,1.14,0,0,1,227.13,129.45Z" style="fill:#407BFF"></path><path d="M231.1,123.65a2.17,2.17,0,1,1-2.17-2.17A2.17,2.17,0,0,1,231.1,123.65Z" style="fill:#407BFF"></path><path d="M231.1,123.65a2.17,2.17,0,1,1-2.17-2.17A2.17,2.17,0,0,1,231.1,123.65Z" style="fill:#fff;isolation:isolate;opacity:0.6000000000000001"></path><circle cx="228.93" cy="123.65" r="1.14" style="fill:#407BFF"></circle><path d="M236.53,121.86a2.17,2.17,0,1,1-2.17-2.17A2.17,2.17,0,0,1,236.53,121.86Z" style="fill:#407BFF"></path><path d="M236.53,121.86a2.17,2.17,0,1,1-2.17-2.17A2.17,2.17,0,0,1,236.53,121.86Z" style="fill:#fff;isolation:isolate;opacity:0.6000000000000001"></path><path d="M235.49,121.86a1.14,1.14,0,1,1-1.13-1.14A1.14,1.14,0,0,1,235.49,121.86Z" style="fill:#407BFF"></path><path d="M235.39,116.52a2.17,2.17,0,1,1-2.17-2.17A2.17,2.17,0,0,1,235.39,116.52Z" style="fill:#407BFF"></path><path d="M235.39,116.52a2.17,2.17,0,1,1-2.17-2.17A2.17,2.17,0,0,1,235.39,116.52Z" style="fill:#fff;isolation:isolate;opacity:0.6000000000000001"></path><path d="M234.36,116.52a1.14,1.14,0,1,1-1.14-1.14A1.14,1.14,0,0,1,234.36,116.52Z" style="fill:#407BFF"></path><circle cx="230.76" cy="128.31" r="1.43" style="fill:#407BFF"></circle><circle cx="230.76" cy="128.31" r="1.43" style="fill:#fff;isolation:isolate;opacity:0.6000000000000001"></circle><path d="M231.51,128.31a.75.75,0,1,1-.75-.75A.75.75,0,0,1,231.51,128.31Z" style="fill:#407BFF"></path><path d="M221.13,137.06a1.43,1.43,0,1,1-1.43-1.43A1.43,1.43,0,0,1,221.13,137.06Z" style="fill:#407BFF"></path><path d="M221.13,137.06a1.43,1.43,0,1,1-1.43-1.43A1.43,1.43,0,0,1,221.13,137.06Z" style="fill:#fff;isolation:isolate;opacity:0.6000000000000001"></path><path d="M220.45,137.06a.75.75,0,1,1-.75-.75A.75.75,0,0,1,220.45,137.06Z" style="fill:#407BFF"></path><path d="M217.64,142.49a1.43,1.43,0,1,1-1.43-1.43A1.43,1.43,0,0,1,217.64,142.49Z" style="fill:#407BFF"></path><path d="M217.64,142.49a1.43,1.43,0,1,1-1.43-1.43A1.43,1.43,0,0,1,217.64,142.49Z" style="fill:#fff;isolation:isolate;opacity:0.6000000000000001"></path><path d="M217,142.49a.75.75,0,1,1-.75-.75A.76.76,0,0,1,217,142.49Z" style="fill:#407BFF"></path><circle cx="224.98" cy="125.14" r="1.43" style="fill:#407BFF"></circle><circle cx="224.98" cy="125.14" r="1.43" style="fill:#fff;isolation:isolate;opacity:0.6000000000000001"></circle><circle cx="224.98" cy="125.14" r="0.75" style="fill:#407BFF"></circle><path d="M241.77,115.38a1.43,1.43,0,1,1-1.43-1.43A1.43,1.43,0,0,1,241.77,115.38Z" style="fill:#407BFF"></path><path d="M241.77,115.38a1.43,1.43,0,1,1-1.43-1.43A1.43,1.43,0,0,1,241.77,115.38Z" style="fill:#fff;isolation:isolate;opacity:0.6000000000000001"></path><path d="M241.09,115.38a.75.75,0,1,1-.75-.75A.76.76,0,0,1,241.09,115.38Z" style="fill:#407BFF"></path><path d="M241,108.46a1.43,1.43,0,1,1-1.43-1.43A1.43,1.43,0,0,1,241,108.46Z" style="fill:#407BFF"></path><path d="M241,108.46a1.43,1.43,0,1,1-1.43-1.43A1.43,1.43,0,0,1,241,108.46Z" style="fill:#fff;isolation:isolate;opacity:0.6000000000000001"></path><path d="M240.34,108.46a.75.75,0,0,1-1.5,0,.75.75,0,0,1,1.5,0Z" style="fill:#407BFF"></path><circle cx="223.26" cy="133.76" r="1.43" style="fill:#407BFF"></circle><circle cx="223.26" cy="133.76" r="1.43" style="fill:#fff;isolation:isolate;opacity:0.6000000000000001"></circle><circle cx="223.26" cy="133.76" r="0.75" style="fill:#407BFF"></circle></g><g id="freepik--human-body--inject-462"><path d="M131.47,303.68a48.11,48.11,0,0,1-11.61-1.41.59.59,0,0,1-.43-.71.6.6,0,0,1,.72-.44,47.6,47.6,0,0,0,17.35,1,.58.58,0,0,1,.66.51.59.59,0,0,1-.51.66A48.83,48.83,0,0,1,131.47,303.68Zm9.59-1a.58.58,0,0,1-.57-.47.59.59,0,0,1,.46-.7,46.21,46.21,0,0,0,5.62-1.52.57.57,0,0,1,.74.37.59.59,0,0,1-.36.75,47.69,47.69,0,0,1-5.77,1.56Zm-32-4.66a.58.58,0,0,1-.28-.07c-.7-.38-1.39-.78-2.08-1.19a.61.61,0,0,1-.2-.81.59.59,0,0,1,.81-.2c.67.4,1.34.79,2,1.16a.58.58,0,0,1,.24.8A.59.59,0,0,1,109,298.05Zm53.05-5.55a.59.59,0,0,1-.38-1c.6-.5,1.18-1,1.74-1.54a.59.59,0,1,1,.81.86c-.58.54-1.18,1.07-1.79,1.58A.54.54,0,0,1,162.07,292.5Zm-68.23-7.35a.61.61,0,0,1-.47-.23A49.74,49.74,0,0,1,90,280a.59.59,0,1,1,1-.6,47.37,47.37,0,0,0,3.26,4.82.59.59,0,0,1-.11.83A.58.58,0,0,1,93.84,285.15Zm77.55-3.24a.55.55,0,0,1-.32-.1.6.6,0,0,1-.18-.81,46.32,46.32,0,0,0,6.54-16.11.58.58,0,0,1,.69-.46.59.59,0,0,1,.47.69,47.72,47.72,0,0,1-6.7,16.52A.62.62,0,0,1,171.39,281.91Zm-82.53-4.76a.61.61,0,0,1-.53-.33,47.7,47.7,0,0,1-4.75-17.17.59.59,0,0,1,.54-.63.58.58,0,0,1,.64.53,46.45,46.45,0,0,0,4.63,16.75.58.58,0,0,1-.27.79A.58.58,0,0,1,88.86,277.15Zm89.71-15h-.07a.59.59,0,0,1-.51-.66,48.85,48.85,0,0,0,.35-5.81c0-1.06,0-2.13-.1-3.19a.59.59,0,1,1,1.18-.08c.07,1.08.1,2.18.1,3.27a49.4,49.4,0,0,1-.36,6A.59.59,0,0,1,178.57,262.11ZM84.64,248.43h-.09a.59.59,0,0,1-.49-.67c.13-.79.28-1.57.45-2.35a.59.59,0,0,1,1.15.25c-.16.76-.31,1.52-.43,2.29A.59.59,0,0,1,84.64,248.43ZM174.4,236a.59.59,0,0,1-.53-.34c-.33-.7-.68-1.4-1.05-2.08a.6.6,0,0,1,.24-.8.59.59,0,0,1,.8.24q.57,1.05,1.08,2.13a.6.6,0,0,1-.28.79A.62.62,0,0,1,174.4,236ZM92,229.91a.59.59,0,0,1-.49-.91,49.2,49.2,0,0,1,3.61-4.76.61.61,0,0,1,.84-.06A.6.6,0,0,1,96,225a46.49,46.49,0,0,0-3.53,4.64A.58.58,0,0,1,92,229.91Zm74.59-5.67a.59.59,0,0,1-.44-.19,46.89,46.89,0,0,0-13.88-10.46.58.58,0,0,1-.27-.79.6.6,0,0,1,.79-.27A48,48,0,0,1,167,223.26a.59.59,0,0,1,0,.83A.58.58,0,0,1,166.55,224.24Zm-68.61-1.61a.59.59,0,0,1-.42-.18.59.59,0,0,1,0-.83,47.88,47.88,0,0,1,14.72-10,.59.59,0,0,1,.48,1.08,46.66,46.66,0,0,0-14.36,9.79A.59.59,0,0,1,97.94,222.63Zm51.32-10.43a.62.62,0,0,1-.23,0,44.66,44.66,0,0,0-5.52-1.84.59.59,0,0,1-.42-.72.58.58,0,0,1,.72-.42,47.06,47.06,0,0,1,5.67,1.88.59.59,0,0,1,.32.77A.58.58,0,0,1,149.26,212.2Zm-25.49-2.82a.58.58,0,0,1-.58-.5.57.57,0,0,1,.48-.67q1.18-.19,2.37-.33a.59.59,0,0,1,.65.52.57.57,0,0,1-.52.65c-.77.09-1.54.2-2.31.32Z" style="fill:#407BFF"></path><circle cx="131.47" cy="255.63" r="43.04" transform="translate(-87.82 69.77) rotate(-22.5)" style="fill:#407BFF"></circle><path d="M174.5,255.63a42.93,42.93,0,0,1-14.82,32.5,45,45,0,0,1-6,4.36,43,43,0,0,1-44.49,0,42.07,42.07,0,0,1-6-4.36,43,43,0,1,1,71.25-32.49Z" style="fill:#fff;isolation:isolate;opacity:0.8"></path><path d="M159.68,288.13a45,45,0,0,1-6,4.36l-4.48-14c-1.07,6.07-2.31,12.54-3.34,17.73a43.19,43.19,0,0,1-28.85,0c-1-5.19-2.27-11.66-3.34-17.73l-4.48,14a42.07,42.07,0,0,1-6-4.36c1.5-8.45,5-26.12,8.26-28.65a.56.56,0,0,1,0-.08c1.84-2.11,12.13-2.64,14-5.54,1.22-1.93,1.23-6.35,1.09-9.11-5.72-6.91-7.37-21.48,6.18-21.48,6.87,0,9.31,5.76,8.95,11.76l1.43,4.33h-1.72c0,4.52-.56,8.27-5.21,8.87.07,2.17.36,4.41,1.14,5.63,1.84,2.9,12.13,3.43,14,5.54a.59.59,0,0,1,0,.08C154.7,262,158.18,279.68,159.68,288.13Z" style="fill:#407BFF"></path><circle cx="110.93" cy="256.89" r="13.98" transform="translate(-164.57 305.83) rotate(-76.72)" style="fill:#fff;isolation:isolate"></circle><path d="M104.59,259.77c1.93-1.48,3.44,0,5.16.56s2.51,2.31,1.39,4.78-4.75,3.42-6.4,1.19S103.17,260.85,104.59,259.77Z" style="fill:#407BFF"></path><path d="M104.59,259.77c1.93-1.48,3.44,0,5.16.56s2.51,2.31,1.39,4.78-4.75,3.42-6.4,1.19S103.17,260.85,104.59,259.77Z" style="fill:#fff;isolation:isolate;opacity:0.8"></path><path d="M106.28,260.89a.69.69,0,0,1,.88-.08c.41.26.6.66,1.16.63,1-.05,1.34.08,1.34.72s1,1,.32,1.73-.32,1.86-1.47,1.73a4.46,4.46,0,0,0-1.16.18c-.2,0-.33-.09-.52-.12s-.54.1-.69-.16,0-.36-.1-.52-.48-.21-.73-.33a.75.75,0,0,1-.38-.74,1.6,1.6,0,0,1,.37-.8c.07-.1.15-.21.11-.32a.67.67,0,0,0-.06-.12,1,1,0,0,1-.08-.62c0-.21.09-.47.29-.49s.21,0,.29,0a.32.32,0,0,0,.08-.14A1.3,1.3,0,0,1,106.28,260.89Z" style="fill:#407BFF"></path><path d="M111.26,247.26c3.81-2,9.29,2.54,9.12,6.87s-3.52,9.58-8.54,6.06S106.87,249.63,111.26,247.26Z" style="fill:#407BFF"></path><path d="M111.26,247.26c3.81-2,9.29,2.54,9.12,6.87s-3.52,9.58-8.54,6.06S106.87,249.63,111.26,247.26Z" style="fill:#fff;isolation:isolate;opacity:0.8"></path><path d="M117.75,253.14a2.62,2.62,0,0,1-.24-.78,1.87,1.87,0,0,0-.17-.88c-.18-.27-.54-.42-.62-.73s0-.38,0-.56-.37-.37-.63-.45l-1.51-.48a1.88,1.88,0,0,0-1-.13c-.65.16-.65.83-1.27,1.05a2.08,2.08,0,0,0-.91.43.75.75,0,0,0-.15.24c-.18.49.14,1.09-.14,1.53a1.82,1.82,0,0,1-.53.42.67.67,0,0,0-.35.55.81.81,0,0,0,.17.38c.71,1-.26,2.16.38,3.08.49.69,1.63.52,2.26,1.1.2.18.33.42.55.59a2,2,0,0,0,1.21.26,1.54,1.54,0,0,0,.6-.09c.4-.18.57-.69,1-.9s.82-.14,1.06-.45a1.45,1.45,0,0,0,.15-.86c0-.6.42-1,.59-1.52A2.4,2.4,0,0,0,117.75,253.14Z" style="fill:#407BFF"></path><path d="M117.32,263.85c.72-.24.49.9.41,1.25a3.53,3.53,0,0,1-1.38,2.22,2.87,2.87,0,0,1-1.15.29c-.57.08-1.4-.3-.78-.92a1.64,1.64,0,0,1,.74-.35,2.37,2.37,0,0,0,.76-.3C116.7,265.46,116.26,264.21,117.32,263.85Z" style="fill:#407BFF"></path><path d="M99.72,255.22a.41.41,0,0,1,.34.34c.18.76-.19,1.58,0,2.38.09.34.47,1,0,1.22a.44.44,0,0,1-.47-.11,2.75,2.75,0,0,1-.7-2C98.89,256.63,99,255.19,99.72,255.22Z" style="fill:#407BFF"></path><path d="M103.82,252.64c2.24-.65,2.35,5.7-.55,4.41S101.58,253.28,103.82,252.64Z" style="fill:#407BFF"></path><path d="M120.43,260.66c-.43-.75,2.37-1.21,1.38,0S120.87,261.45,120.43,260.66Z" style="fill:#407BFF"></path><path d="M106,248c-.72-1.1,2-1.85,2-.46S106.49,248.72,106,248Z" style="fill:#407BFF"></path><path d="M103.82,252.64c2.24-.65,2.35,5.7-.55,4.41S101.58,253.28,103.82,252.64Z" style="fill:#fff;isolation:isolate;opacity:0.8"></path><path d="M120.43,260.66c-.43-.75,2.37-1.21,1.38,0S120.87,261.45,120.43,260.66Z" style="fill:#fff;isolation:isolate;opacity:0.8"></path><path d="M106,248c-.72-1.1,2-1.85,2-.46S106.49,248.72,106,248Z" style="fill:#fff;isolation:isolate;opacity:0.8"></path></g><g id="freepik--Tubes--inject-462"><rect x="105.89" y="349.45" width="2.66" height="44.15" style="fill:#263238"></rect><rect x="181.23" y="349.45" width="2.66" height="44.15" style="fill:#263238"></rect><path d="M118.56,393.6h0a4.25,4.25,0,0,1-4.25-4.25v-49.2h8.5v49.2A4.25,4.25,0,0,1,118.56,393.6Z" style="fill:#407BFF"></path><path d="M118.56,393.6h0a4.25,4.25,0,0,1-4.25-4.25v-49.2h8.5v49.2A4.25,4.25,0,0,1,118.56,393.6Z" style="fill:#fff;opacity:0.8"></path><path d="M115.13,360.67v28.68a3.44,3.44,0,0,0,3.43,3.43h0a3.43,3.43,0,0,0,3.43-3.43V360.67Z" style="fill:#407BFF"></path><path d="M122.74,340.92h-8.35a.7.7,0,0,1-.7-.7h0a.7.7,0,0,1,.7-.71h8.35a.71.71,0,0,1,.7.71h0A.71.71,0,0,1,122.74,340.92Z" style="fill:#407BFF"></path><path d="M122.74,340.92h-8.35a.7.7,0,0,1-.7-.7h0a.7.7,0,0,1,.7-.71h8.35a.71.71,0,0,1,.7.71h0A.71.71,0,0,1,122.74,340.92Z" style="fill:#fff;opacity:0.4"></path><path d="M131.86,340.15h8.5a0,0,0,0,1,0,0v49.2a4.25,4.25,0,0,1-4.25,4.25h0a4.25,4.25,0,0,1-4.25-4.25v-49.2a0,0,0,0,1,0,0Z" style="fill:#407BFF"></path><path d="M131.86,340.15h8.5a0,0,0,0,1,0,0v49.2a4.25,4.25,0,0,1-4.25,4.25h0a4.25,4.25,0,0,1-4.25-4.25v-49.2a0,0,0,0,1,0,0Z" style="fill:#fff;opacity:0.8"></path><path d="M132.69,360.67v28.68a3.43,3.43,0,0,0,3.42,3.43h0a3.43,3.43,0,0,0,3.43-3.43V360.67Z" style="fill:#407BFF"></path><path d="M140.29,340.92h-8.35a.71.71,0,0,1-.7-.7h0a.71.71,0,0,1,.7-.71h8.35a.71.71,0,0,1,.7.71h0A.71.71,0,0,1,140.29,340.92Z" style="fill:#407BFF"></path><path d="M140.29,340.92h-8.35a.71.71,0,0,1-.7-.7h0a.71.71,0,0,1,.7-.71h8.35a.71.71,0,0,1,.7.71h0A.71.71,0,0,1,140.29,340.92Z" style="fill:#fff;opacity:0.4"></path><path d="M153.67,393.6h0a4.25,4.25,0,0,1-4.25-4.25v-49.2h8.5v49.2A4.25,4.25,0,0,1,153.67,393.6Z" style="fill:#407BFF"></path><path d="M153.67,393.6h0a4.25,4.25,0,0,1-4.25-4.25v-49.2h8.5v49.2A4.25,4.25,0,0,1,153.67,393.6Z" style="fill:#fff;opacity:0.8"></path><path d="M150.24,360.67v28.68a3.43,3.43,0,0,0,3.43,3.43h0a3.44,3.44,0,0,0,3.43-3.43V360.67Z" style="fill:#407BFF"></path><path d="M157.84,340.92h-8.35a.71.71,0,0,1-.7-.7h0a.71.71,0,0,1,.7-.71h8.35a.7.7,0,0,1,.7.71h0A.7.7,0,0,1,157.84,340.92Z" style="fill:#407BFF"></path><path d="M157.84,340.92h-8.35a.71.71,0,0,1-.7-.7h0a.71.71,0,0,1,.7-.71h8.35a.7.7,0,0,1,.7.71h0A.7.7,0,0,1,157.84,340.92Z" style="fill:#fff;opacity:0.4"></path><path d="M171.22,393.6h0a4.25,4.25,0,0,1-4.25-4.25v-49.2h8.5v49.2A4.25,4.25,0,0,1,171.22,393.6Z" style="fill:#407BFF"></path><path d="M171.22,393.6h0a4.25,4.25,0,0,1-4.25-4.25v-49.2h8.5v49.2A4.25,4.25,0,0,1,171.22,393.6Z" style="fill:#fff;opacity:0.8"></path><path d="M167.79,360.67v28.68a3.43,3.43,0,0,0,3.43,3.43h0a3.44,3.44,0,0,0,3.43-3.43V360.67Z" style="fill:#407BFF"></path><path d="M175.39,340.92h-8.34a.71.71,0,0,1-.71-.7h0a.71.71,0,0,1,.71-.71h8.34a.7.7,0,0,1,.7.71h0A.7.7,0,0,1,175.39,340.92Z" style="fill:#407BFF"></path><path d="M175.39,340.92h-8.34a.71.71,0,0,1-.71-.7h0a.71.71,0,0,1,.71-.71h8.34a.7.7,0,0,1,.7.71h0A.7.7,0,0,1,175.39,340.92Z" style="fill:#fff;opacity:0.4"></path><rect x="102.31" y="391.2" width="85.16" height="9.24" style="fill:#263238"></rect><rect x="103.24" y="347.59" width="83.3" height="3.72" style="fill:#263238"></rect><rect x="102.31" y="391.2" width="85.16" height="9.24" style="fill:#fff;opacity:0.2"></rect><rect x="103.24" y="347.59" width="83.3" height="3.72" style="fill:#fff;opacity:0.2"></rect><rect x="98.44" y="397.14" width="92.9" height="3.3" style="fill:#263238"></rect><path d="M120.9,365.26a1.17,1.17,0,1,1-1.17-1.16A1.17,1.17,0,0,1,120.9,365.26Z" style="fill:#fff;opacity:0.2"></path><path d="M138.55,383.56a1.17,1.17,0,1,1-1.17-1.16A1.17,1.17,0,0,1,138.55,383.56Z" style="fill:#fff;opacity:0.2"></path><path d="M120.9,384.73a1.17,1.17,0,1,1-1.17-1.17A1.18,1.18,0,0,1,120.9,384.73Z" style="fill:#fff;opacity:0.2"></path><path d="M155.42,387.81a1.17,1.17,0,1,1-1.16-1.17A1.16,1.16,0,0,1,155.42,387.81Z" style="fill:#fff;opacity:0.2"></path><path d="M154.26,374.38a1.17,1.17,0,1,1-1.17-1.16A1.17,1.17,0,0,1,154.26,374.38Z" style="fill:#fff;opacity:0.2"></path><path d="M173.33,365.92a1.17,1.17,0,1,1-1.17-1.17A1.18,1.18,0,0,1,173.33,365.92Z" style="fill:#fff;opacity:0.2"></path><path d="M173.33,379.38a1.17,1.17,0,1,1-1.17-1.17A1.17,1.17,0,0,1,173.33,379.38Z" style="fill:#fff;opacity:0.2"></path><path d="M171.38,383.81a1.17,1.17,0,1,1-1.17-1.16A1.17,1.17,0,0,1,171.38,383.81Z" style="fill:#fff;opacity:0.2"></path><path d="M121.4,374.77a1.17,1.17,0,1,1-1.16-1.16A1.16,1.16,0,0,1,121.4,374.77Z" style="fill:#fff;opacity:0.2"></path><path d="M137.28,372.65a1.17,1.17,0,1,1-1.17-1.17A1.16,1.16,0,0,1,137.28,372.65Z" style="fill:#fff;opacity:0.2"></path><path d="M118.89,378.21a1.17,1.17,0,1,1-1.16-1.17A1.17,1.17,0,0,1,118.89,378.21Z" style="fill:#fff;opacity:0.2"></path><path d="M156.24,371.52a1.17,1.17,0,1,1-1.16-1.16A1.16,1.16,0,0,1,156.24,371.52Z" style="fill:#fff;opacity:0.2"></path><path d="M171.06,362.8a1.17,1.17,0,1,1-1.17-1.16A1.17,1.17,0,0,1,171.06,362.8Z" style="fill:#fff;opacity:0.2"></path><circle cx="117.73" cy="370.2" r="1.95" style="fill:#fff;opacity:0.2"></circle><circle cx="135.43" cy="387.81" r="1.95" style="fill:#fff;opacity:0.2"></circle><path d="M138.07,378.67a2,2,0,1,1-2-1.95A2,2,0,0,1,138.07,378.67Z" style="fill:#fff;opacity:0.2"></path><circle cx="153.13" cy="367.29" r="1.95" style="fill:#fff;opacity:0.2"></circle><path d="M172.63,369.57a1.95,1.95,0,1,1-1.95-1.95A2,2,0,0,1,172.63,369.57Z" style="fill:#fff;opacity:0.2"></path><path d="M120.51,389a2,2,0,1,1-2-2A1.95,1.95,0,0,1,120.51,389Z" style="fill:#fff;opacity:0.2"></path><circle cx="136.22" cy="364.75" r="1.95" style="fill:#fff;opacity:0.2"></circle><path d="M156.21,380.45a2,2,0,1,1-2-1.95A1.95,1.95,0,0,1,156.21,380.45Z" style="fill:#fff;opacity:0.2"></path><path d="M174.11,388.3a1.95,1.95,0,1,1-2-1.95A2,2,0,0,1,174.11,388.3Z" style="fill:#fff;opacity:0.2"></path><path d="M172.63,374.77a1.95,1.95,0,1,1-1.95-1.95A2,2,0,0,1,172.63,374.77Z" style="fill:#fff;opacity:0.2"></path></g><g id="freepik--Character--inject-462"><path d="M230.41,365.34l9.77-7c7-10.58-8.17-17.19-8.17-17.19L226,335c-2-2.07-5.53-2.17-8.26-.23l-6.87,4.89c-3.13,2.22-4.13,6.29-2.22,9l4.29,6.13a13.16,13.16,0,0,0,4.86,4.21Z" style="fill:#e4897b"></path><path d="M290.08,303.4c-11.33,4.89-9.94,73.55-13.5,76-4,2.7-33.63-26.88-33.63-26.88l-13.42,12.67s40.61,55.12,58.49,42.15,17.55-63.89,17.55-63.89Z" style="fill:#407BFF"></path><path d="M229.53,365.17s40.61,55.12,58.49,42.15a24.88,24.88,0,0,0,6.61-7.64c5.14-8.67,7.87-21.26,9.32-32.32,1-7.69,1.39-14.65,1.53-19.06.1-3,.09-4.87.09-4.87L301,331.64,290.08,303.4c-4.83,2.1-7.36,15.83-8.93,31.07-.39,3.72-.72,7.53-1,11.27-1.31,16.83-1.9,32.5-3.57,33.63-4,2.71-33.62-26.87-33.62-26.87Z" style="fill:#fff;opacity:0.7000000000000001"></path><path d="M294.63,399.68C303.35,385,305.12,359,305.48,348.3c-6.78-9.85-12.41-17.07-12.41-17.07S290.13,382.63,294.63,399.68Z" style="opacity:0.1"></path><path d="M304.07,411.89c-4.77-34.12-9.16-67.84-9.22-76.65C294.72,315.86,397.27,314,397.27,314s6.75,56,15.8,89.39c.77,2.82,1.6,5.65,2.48,8.47Z" style="fill:#407BFF"></path><path d="M304.07,411.89c-4.77-34.12-9.16-67.84-9.22-76.65C294.72,315.86,397.27,314,397.27,314s6.75,56,15.8,89.39c.77,2.82,1.6,5.65,2.48,8.47Z" style="fill:#fff;opacity:0.5"></path><path d="M308.48,411.89c-22.15-67.62-15.62-104.47-15.62-104.47l21.31-14.31s3.2-1.1,4.84-1.61c10.59-3.29,28.29-8.71,40.85-8.72,25.4,0,30.2,12.89,30.2,12.89.35,21,5.66,26.11,8.93,45.41,2.39,14.11,5.27,27.4,8.16,39.38s5.78,22.57,8.27,31.43Z" style="fill:#263238"></path><path d="M354.23,285.54S336,307.41,329.45,308.73c-4.62.93-12.9-5.2-12.9-5.2a20,20,0,0,0,6-7.29c3.23-7.21-1-14.25-6.21-20.41l13.51-30.7a130,130,0,0,0,6.56,18.79v0C340.76,273.84,346.79,283.13,354.23,285.54Z" style="fill:#e4897b"></path><path d="M336.39,263.92v0c.47,12.06-1.76,26.56-13.87,32.3,3.23-7.21-1-14.25-6.21-20.41l13.51-30.7A130,130,0,0,0,336.39,263.92Z" style="opacity:0.2"></path><path d="M329.44,308.74s6.35,3.71,13.43,7.1c6.28-6.42,20.54-22.74,16.44-31.91-2-2.41-9.8-1.69-9.8-1.69S345.12,295.12,329.44,308.74Z" style="fill:#263238"></path><path d="M322.64,318.59c1.86-7.16,6.81-9.85,6.81-9.85-5-3.82-5.75-11.57-5.73-16.12v-.09c0-.17,0-.34,0-.51a19.37,19.37,0,0,0-.19-2.73,24.67,24.67,0,0,0-7.22,5.81C314.94,297.76,315.82,316.88,322.64,318.59Z" style="fill:#263238"></path><g style="opacity:0.2"><path d="M329.44,308.74s6.35,3.71,13.43,7.1c6.28-6.42,20.54-22.74,16.44-31.91-2-2.41-9.8-1.69-9.8-1.69S345.12,295.12,329.44,308.74Z" style="fill:#fff"></path><path d="M322.64,318.59c1.86-7.16,6.81-9.85,6.81-9.85-5-3.82-5.75-11.57-5.73-16.12v-.09c0-.17,0-.34,0-.51a19.37,19.37,0,0,0-.19-2.73,24.67,24.67,0,0,0-7.22,5.81C314.94,297.76,315.82,316.88,322.64,318.59Z" style="fill:#fff"></path></g><path d="M362.24,282.42s-11,45.83,3.4,130.19l50,.22s-15.95-67.71-17.8-106C397.88,306.8,400.67,280.61,362.24,282.42Z" style="fill:#407BFF"></path><path d="M358.35,340.85c.08,3.14.19,6.42.36,9.8.56,11.75,1.67,24.94,3.56,39.53q1.38,10.72,3.37,22.43l50,.22s-15.95-67.71-17.8-106c0,0,2.54-24-30.83-24.46-1.52,0-3.13,0-4.81.07C362.24,282.41,357.4,302.61,358.35,340.85Z" style="fill:#fff;opacity:0.7000000000000001"></path><path d="M358.71,350.65c3.82-15.77,12.83-35.61,12.83-35.61L360,309l16.37-5-9.35-21.59c-1.52,0-3.13,0-4.81.07C362.24,282.41,356.57,306.07,358.71,350.65Z" style="fill:#fff;opacity:0.4"></path><path d="M306.87,366.31c.1,3.18.22,6.52.37,10,.56,12.48,1.29,24.41,2.12,35.6h-8.14c-6-40.2-11.56-84.27-11.14-108.49l15.52-6.65,8.57-3.64C313.61,293.81,305,305.52,306.87,366.31Z" style="fill:#407BFF"></path><path d="M290.79,324.9c.7,10.22,1.84,21.8,3.26,34,2,17.08,4.54,35.41,7.17,53h8.14c-.83-11.19-1.56-23.12-2.12-35.6-.1-2.25-.18-4.44-.26-6.57q-.06-1.74-.12-3.42c-.37-12.11-.31-22.27,0-30.8,1.27-34.21,6.86-41.83,7.3-42.39l-8.56,3.64-15.52,6.65C290,309.45,290.24,316.74,290.79,324.9Z" style="fill:#fff;opacity:0.7000000000000001"></path><path d="M306.28,315l-9.6,7s4.79,29.44,10.19,44.24c-1.85-60.79,6.74-72.5,7.3-73.2l-8.57,3.64c-3.26,3.63-8.22,9.82-10.82,16.42Z" style="fill:#fff;opacity:0.4"></path><path d="M274.64,243.93c.78,7.26,7.61,19.88,14.66,11.73S273.3,231.46,274.64,243.93Z" style="fill:#263238"></path><path d="M292.71,277.83c.44.49.89,1,1.33,1.43,11.87,12.32,32.86,9.75,39.61-5.68a24.22,24.22,0,0,0,1.29-3.77c3.17-12.45-2.41-21.38-10.56-37.35s-30.25-18.82-41.66-4.14C271.59,242.65,281.68,265.49,292.71,277.83Z" style="fill:#e4897b"></path><path d="M292.71,277.83c.44.49.89,1,1.33,1.43a25.4,25.4,0,0,0,21.73,7.56c11.12-1.51,18.07-12.92,14.81-23.66-2.64-8.71-6.15-19.61-8-22.28-3.15-4.6-2.89-2.34-2.89-2.34s4.34,14.84,2.26,22c0,0-8.77-3-13.81,6.42,0,0-6.73,2.43-6.06,11.29C302.11,278.3,296.15,279,292.71,277.83Z" style="fill:#263238"></path><path d="M292.71,277.83c.44.49.89,1,1.33,1.43a25.4,25.4,0,0,0,21.73,7.56c11.12-1.51,18.07-12.92,14.81-23.66-2.64-8.71-6.15-19.61-8-22.28-3.15-4.6-2.89-2.34-2.89-2.34s4.34,14.84,2.26,22c0,0-8.77-3-13.81,6.42,0,0-6.73,2.43-6.06,11.29C302.11,278.3,296.15,279,292.71,277.83Z" style="fill:#fff;opacity:0.6000000000000001"></path><path d="M327.15,211.49l-19.42,4.57,2.63,11.15c.3-.31.65-.63.93-.93,0,0,5.79,15.72,16.52,18.61C337.55,231.87,336.78,215.34,327.15,211.49Z" style="fill:#263238"></path><path d="M338.86,240.9a16.82,16.82,0,0,1-2.23,12.77c-3.25,5-8.86,3.05-11.28-2.06-2.19-4.6-3.13-12.75,1.73-16S337.59,235.53,338.86,240.9Z" style="fill:#e4897b"></path><path d="M289.07,258.61c.74,1.25.67,2.66-.15,3.14s-2.1-.16-2.84-1.41-.67-2.66.15-3.14S288.33,257.35,289.07,258.61Z" style="fill:#263238"></path><path d="M294,256.61s1.17,8.67,0,13.9c3.37.69,6.61-2.46,6.61-2.46Z" style="fill:#de5753"></path><path d="M313.13,264.53a13.23,13.23,0,0,1,1.68-.88.43.43,0,0,1,.36.78,11.42,11.42,0,0,0-6.76,7.92.43.43,0,0,1-.49.35.42.42,0,0,1-.36-.49A11.86,11.86,0,0,1,313.13,264.53Z" style="fill:#263238"></path><path d="M303.88,244a.86.86,0,0,1-.7.51,6.92,6.92,0,0,0-5.31,3.22.88.88,0,0,1-1.16.38.85.85,0,0,1-.37-1.15,8.57,8.57,0,0,1,6.67-4.15.85.85,0,0,1,.94.76A.79.79,0,0,1,303.88,244Z" style="fill:#263238"></path><path d="M281,258.18a.85.85,0,0,1-.46.18.87.87,0,0,1-.93-.79,8.45,8.45,0,0,1,2.89-7.23.87.87,0,0,1,1.21.17.85.85,0,0,1-.15,1.19,6.54,6.54,0,0,0-2.23,5.75A.85.85,0,0,1,281,258.18Z" style="fill:#263238"></path><path d="M318.39,228.72a7.58,7.58,0,0,1-.93,1.14,8,8,0,0,1-7.32,2.41c-5.44-1-10.79-14.11-22.39-3.36a8.26,8.26,0,0,0-7.32,5.19c-2.28,5.27,4.58,20.21-3.49,20.17s-7.42-2.71-7.42-2.71,2.46.73,3.4-.67c0,0-4.83-2.14-4.24-7.21,0,0,2.42,1.62,3.51.86,0,0-4.53-7.33-3.28-19.34s28.39-17.12,28.39-17.12,1.75-6.52,14.81-6,22.6,13.33,22.5,20.15" style="fill:#263238"></path><path d="M300.7,253.77a.31.31,0,0,1-.13,0,.37.37,0,0,1-.24-.39,6.77,6.77,0,0,1,3.46-5,.38.38,0,0,1,.51.16.37.37,0,0,1-.17.5,6.5,6.5,0,0,0-2.76,3.16,9.27,9.27,0,0,1,3.06-1.67.37.37,0,1,1,.23.71,7.84,7.84,0,0,0-3.65,2.37A.38.38,0,0,1,300.7,253.77Z" style="fill:#263238"></path><path d="M358.35,340.85c.08,3.14.19,6.42.36,9.8.56,11.75,1.67,24.94,3.56,39.53,30.22-14.35,32.36-60.07,32.36-60.07s-5.55-28.63-15.62-20.3C372.43,315.25,363.66,330.75,358.35,340.85Z" style="opacity:0.1"></path><path d="M280.14,345.74c3.51,3.47,8.49,8.3,13.91,13.16,3.23,2.9,6.6,5.81,9.9,8.46,1,.81,2,1.6,3,2.36q-.06-1.74-.12-3.42c-.37-12.11-.31-22.27,0-30.8L301,331.64l-10.22-6.74-9.64,9.57C280.76,338.19,280.43,342,280.14,345.74Z" style="opacity:0.1"></path><path d="M240.37,322.89,235,331l4.88,3.35,6.49-8S243.88,322,240.37,322.89Z" style="fill:#263238"></path><path d="M237.28,311.67,224.85,316l1.53,5.68,11.94-2.61S240.28,314.64,237.28,311.67Z" style="fill:#263238"></path><path d="M240.37,322.89,235,331l4.88,3.35,6.49-8S243.88,322,240.37,322.89Z" style="fill:#fff;opacity:0.05"></path><path d="M237.28,311.67,224.85,316l1.53,5.68,11.94-2.61S240.28,314.64,237.28,311.67Z" style="fill:#fff;opacity:0.05"></path><polygon points="241.75 314.9 243.31 319.9 249.16 324.39 255.97 324.9 274.05 300.82 275.52 298.85 274.03 294.35 288.02 275.4 279.56 269.04 265.94 288.49 260.86 288.93 259.65 290.57 241.75 314.9" style="fill:#263238"></polygon><polygon points="241.75 314.9 243.31 319.9 249.16 324.39 255.97 324.9 274.05 300.82 275.52 298.85 274.03 294.35 288.02 275.4 279.56 269.04 265.94 288.49 260.86 288.93 259.65 290.57 241.75 314.9" style="fill:#fff;opacity:0.5"></polygon><polygon points="259.65 290.57 274.05 300.82 275.52 298.85 274.03 294.35 288.02 275.4 279.56 269.04 265.94 288.49 260.86 288.93 259.65 290.57" style="fill:#263238"></polygon><polygon points="244.19 323.96 239.42 323.2 237.11 319.86 239.07 312.88 244.19 323.96" style="fill:#263238"></polygon><polygon points="259.65 290.57 274.05 300.82 275.52 298.85 274.03 294.35 288.02 275.4 279.56 269.04 265.94 288.49 260.86 288.93 259.65 290.57" style="fill:#fff;opacity:0.2"></polygon><polygon points="244.19 323.96 239.42 323.2 237.11 319.86 239.07 312.88 244.19 323.96" style="fill:#fff;opacity:0.1"></polygon><polygon points="250.37 325.7 239.72 307.53 235.47 310.07 246.22 328.86 250.37 325.7" style="fill:#263238"></polygon><polygon points="250.37 325.7 239.72 307.53 235.47 310.07 246.22 328.86 250.37 325.7" style="fill:#fff;opacity:0.2"></polygon><polygon points="255.78 333.25 249.87 343.81 248.59 343.07 255.11 332.41 255.78 333.25" style="fill:#263238"></polygon><polygon points="255.78 333.25 249.87 343.81 248.59 343.07 255.11 332.41 255.78 333.25" style="fill:#fff;opacity:0.2"></polygon><polygon points="238.24 382.17 211.84 367.02 210.33 369.84 236.06 384.75 238.24 382.17" style="fill:#263238"></polygon><polygon points="238.24 382.17 211.84 367.02 210.33 369.84 236.06 384.75 238.24 382.17" style="fill:#fff;opacity:0.1"></polygon><polygon points="225.21 345.28 222.58 350.07 235.24 357.02 238.62 352.36 225.21 345.28" style="fill:#263238"></polygon><polygon points="225.21 345.28 222.58 350.07 235.24 357.02 238.62 352.36 225.21 345.28" style="fill:#fff;opacity:0.05"></polygon><polygon points="255.54 355.26 251.65 361.83 208.21 337.77 212.76 331.23 255.54 355.26" style="fill:#263238"></polygon><polygon points="237.89 357.4 221.83 348.58 219.78 352.29 235.49 361.06 237.89 357.4" style="fill:#263238"></polygon><polygon points="255.54 355.26 251.65 361.83 208.21 337.77 212.76 331.23 255.54 355.26" style="fill:#fff;opacity:0.2"></polygon><polygon points="237.89 357.4 221.83 348.58 219.78 352.29 235.49 361.06 237.89 357.4" style="fill:#fff;opacity:0.1"></polygon><path d="M279.76,315.69,265.68,309l-13.46,25.26,12.36,7.17.4-.21a7.1,7.1,0,0,1,6.92.11l2.33,1.35a3.7,3.7,0,0,1,1.7,4.25h0a42.6,42.6,0,0,1-14.1,21.05h0a3.12,3.12,0,0,1-3.6.25l-3.47-2.3a6,6,0,0,1-2.64-4.85h0l-18.73-10.26-1.33,2.43,8.95,5.07,0,11.19-7.82,15.85,7.78,4.44s29.5-5.37,40.34-27.77S279.76,315.69,279.76,315.69Z" style="fill:#263238"></path><path d="M279.76,315.69,265.68,309l-13.46,25.26,12.36,7.17.4-.21a7.1,7.1,0,0,1,6.92.11l2.33,1.35a3.7,3.7,0,0,1,1.7,4.25h0a42.6,42.6,0,0,1-14.1,21.05h0a3.12,3.12,0,0,1-3.6.25l-3.47-2.3a6,6,0,0,1-2.64-4.85h0l-18.73-10.26-1.33,2.43,8.95,5.07,0,11.19-7.82,15.85,7.78,4.44s29.5-5.37,40.34-27.77S279.76,315.69,279.76,315.69Z" style="fill:#fff;opacity:0.7000000000000001"></path><path d="M258.66,333.67a4.16,4.16,0,1,0,4.72-3.52A4.17,4.17,0,0,0,258.66,333.67Z" style="fill:#263238"></path><polygon points="227.79 374.72 224.69 379.38 209 370.48 211.87 365.92 227.79 374.72" style="fill:#263238"></polygon><path d="M257.77,314a7.11,7.11,0,1,0,8.05-6A7.11,7.11,0,0,0,257.77,314Z" style="fill:#263238"></path><path d="M258.66,333.67a4.16,4.16,0,1,0,4.72-3.52A4.17,4.17,0,0,0,258.66,333.67Z" style="fill:#fff;opacity:0.1"></path><polygon points="227.79 374.72 224.69 379.38 209 370.48 211.87 365.92 227.79 374.72" style="fill:#fff;opacity:0.2"></polygon><path d="M257.77,314a7.11,7.11,0,1,0,8.05-6A7.11,7.11,0,0,0,257.77,314Z" style="fill:#fff;opacity:0.2"></path><path d="M261.29,314.53a3.55,3.55,0,1,0,4-3A3.56,3.56,0,0,0,261.29,314.53Z" style="fill:#fff;opacity:0.5"></path><rect x="208.92" y="390.26" width="38.67" height="4.51" transform="translate(456.51 785.02) rotate(180)" style="fill:#263238"></rect><rect x="208.92" y="390.26" width="38.67" height="4.51" transform="translate(456.51 785.02) rotate(180)" style="fill:#fff;opacity:0.1"></rect><path d="M268.64,394.77,256.7,374a7,7,0,0,0-6.42-3.5h0a7,7,0,0,0-6.63,6.71l-.7,17.54Z" style="fill:#263238"></path><path d="M268.64,394.77,256.7,374a7,7,0,0,0-6.42-3.5h0a7,7,0,0,0-6.63,6.71l-.7,17.54Z" style="fill:#fff;opacity:0.5"></path><path d="M246.84,378.17A4.17,4.17,0,1,0,251,374,4.17,4.17,0,0,0,246.84,378.17Z" style="fill:#263238"></path><rect x="200.58" y="394.08" width="78.17" height="6.15" transform="translate(479.33 794.31) rotate(180)" style="fill:#263238"></rect><path d="M246.84,378.17A4.17,4.17,0,1,0,251,374,4.17,4.17,0,0,0,246.84,378.17Z" style="fill:#fff;opacity:0.1"></path><rect x="200.58" y="394.08" width="78.17" height="6.15" transform="translate(479.33 794.31) rotate(180)" style="fill:#fff;opacity:0.2"></rect><path d="M295.35,330.53l-4.81,11.05c-8.84,9.07-18.53-4.31-18.53-4.31l-7.26-4.55c-2.46-1.54-3.3-4.94-2-8l3.31-7.75c1.5-3.53,5.26-5.38,8.33-4.1l6.9,2.89a13.06,13.06,0,0,1,5.15,3.85Z" style="fill:#e4897b"></path><path d="M387,287.05s-34.3,74.88-39.54,75.91S294,326.78,294,326.78l-9.73,19.1s42.94,48.31,67.18,43.87c22.22-4.08,43.29-41.5,47.62-65.79C404.58,292.85,387,287.05,387,287.05Z" style="fill:#407BFF"></path><path d="M387,287.05s-34.3,74.88-39.54,75.91S294,326.78,294,326.78l-9.73,19.1s42.94,48.31,67.18,43.87c22.22-4.08,43.29-41.5,47.62-65.79C404.58,292.85,387,287.05,387,287.05Z" style="fill:#fff;opacity:0.7000000000000001"></path><rect x="214.36" y="335.24" width="28.34" height="4.61" transform="translate(265.05 743.55) rotate(-151.04)" style="fill:#407BFF"></rect><rect x="214.36" y="335.24" width="28.34" height="4.61" transform="translate(265.05 743.55) rotate(-151.04)" style="fill:#fafafa;opacity:0.7000000000000001"></rect><rect x="80.03" y="399.65" width="338.98" height="15.8" style="fill:#407BFF"></rect><rect x="80.03" y="399.65" width="338.98" height="15.8" style="fill:#fafafa;opacity:0.2"></rect><path d="M424.07,399.65H75.93a4,4,0,0,0-4,4h0a3.94,3.94,0,0,0,4,3.95H424.07A3.94,3.94,0,0,0,428,403.6h0A4,4,0,0,0,424.07,399.65Z" style="fill:#407BFF"></path><path d="M424.07,399.65H75.93a4,4,0,0,0-4,4h0a3.94,3.94,0,0,0,4,3.95H424.07A3.94,3.94,0,0,0,428,403.6h0A4,4,0,0,0,424.07,399.65Z" style="fill:#fafafa;opacity:0.4"></path></g></svg>